<svg width="72" height="68" viewBox="0 0 72 68" fill="none" xmlns="http://www.w3.org/2000/svg">
<path d="M46.0746 57.0666C43.7887 61.5635 40.157 64.9536 36.0154 68C31.7508 64.8546 28.2728 61.5868 25.9869 57.0026C22.7854 58.0627 19.5347 58.5287 16.1919 58.3598L11.2698 58.1093C10.5754 58.0744 10.0715 57.5851 10.0715 56.9152L10.0531 50.7932C10.0469 48.3118 10.6246 45.8712 11.3742 43.4888C6.7717 41.3219 3.23223 37.9085 0 34.0117C3.31211 29.94 6.76555 26.2762 11.5279 24.1967C10.7966 22.024 10.1453 19.7814 10.1391 17.5039L10.1268 10.2285C10.8151 9.74508 11.4664 9.69848 12.3328 9.60528C17.0214 9.09268 21.5748 9.14511 26.079 10.8751C28.408 6.45983 31.8491 2.87168 36.126 0C40.2861 3.227 43.7457 6.39575 46.0684 10.846C51.224 8.99949 56.2014 8.99949 61.6397 9.88487L61.7073 18.8552C61.7196 20.7367 61.019 22.6007 60.5213 24.3481C65.2713 26.3228 68.737 29.9983 72 34.0117C68.9828 37.7571 65.3205 41.5025 60.6503 43.3956C61.9961 48.0905 62.0514 52.8902 61.4922 57.8996L55.8143 58.3423C52.4837 58.6044 49.2269 58.0685 46.0807 57.0608L46.0746 57.0666ZM36.0891 19.397C37.779 16.0593 40.5319 13.5429 43.9976 11.7896C42.2156 8.08498 39.2783 5.25989 36.0522 2.73188C32.6848 5.18417 30.0179 8.03838 28.07 11.7197C31.3759 13.4905 34.1719 15.9894 36.0952 19.397H36.0891ZM24.4936 23.1365C23.6149 19.2164 23.9836 15.9486 25.2126 12.7391C20.9234 11.2654 16.7633 11.1605 12.3759 11.7255C12.1239 15.6108 12.1608 19.5368 13.5065 23.4802C17.1443 22.2861 20.862 22.1813 24.4936 23.1365ZM58.6041 23.5734C59.8454 19.4377 59.8023 15.7214 59.4767 11.6848C55.2367 11.1372 50.8861 11.1722 46.8366 12.7799C47.8751 16.1525 48.2622 19.5251 47.4818 23.189C51.1687 22.2686 54.868 22.5191 58.6041 23.5734ZM34.5774 28.1227L34.7434 22.5308C34.8294 19.6183 30.5095 15.3195 27.1605 13.6245C25.9254 17.067 25.8517 20.6668 27.1298 24.0685C29.2805 25.4549 30.9888 27.0218 32.6295 28.9615L34.5836 28.1227H34.5774ZM39.2722 28.8217C41.1648 26.8994 42.8301 25.4723 44.9501 24.1268C46.2159 20.7425 46.0316 17.0728 44.8579 13.6652C41.0235 15.5816 38.3259 18.6048 37.1583 22.4084L37.2751 28.1052L39.2722 28.8217ZM30.0671 32.7418L30.657 30.674C28.5616 29.2352 26.9147 27.7324 25.6612 25.7345C21.9804 24.2258 18.0538 24.0744 14.2501 25.3733C15.9338 28.8508 18.6805 31.4836 22.4228 32.7884C24.9852 32.369 27.4248 32.4331 30.0609 32.7418H30.0671ZM41.8653 32.6311C44.4892 32.4389 47.0025 32.5379 49.5035 32.9224C53.2334 31.5652 55.9188 28.8275 57.6086 25.5306C53.8541 24.2549 49.9951 24.3074 46.3573 25.7636C44.9439 27.6916 43.1127 29.2003 41.0358 30.5517L41.8592 32.6311H41.8653ZM12.3144 41.3976C13.992 37.9435 16.3701 35.7416 19.6392 33.8777C16.284 32.171 13.7831 29.5381 12.2898 26.0723C9.24196 27.4936 6.74712 29.5672 4.60869 32.0079L2.86353 34.0117C5.56115 36.8018 8.67662 40.1395 12.3144 41.3918V41.3976ZM69.1426 34.0233C66.4757 30.7614 63.7044 28.0877 59.7409 26.2878C58.0756 29.4799 55.7098 32.171 52.3424 33.8777C55.7959 35.7475 58.2415 38.1939 59.8146 41.4967C63.772 39.79 66.7092 36.8018 69.1426 34.0233ZM33.4529 36.7202C34.9461 37.827 36.7405 37.7338 38.1292 36.8542C39.518 35.9746 40.1447 34.431 39.7023 32.7884C39.3398 31.437 38.0862 30.2138 36.3288 29.9808C34.5713 29.7478 32.8753 30.8953 32.3714 32.1885C31.7139 33.8719 31.9659 35.631 33.4529 36.7261V36.7202ZM30.7922 36.6503L30.0671 35.0077C27.4432 35.165 24.9729 35.2291 22.3921 34.9262C18.7666 36.2717 15.9276 38.8988 14.2009 42.3296C17.8756 43.4713 21.5748 43.4072 25.2618 42.2422C26.5829 39.988 28.6169 38.2114 30.7922 36.6503ZM57.7438 42.2364C56.0539 38.5959 53.0183 36.161 49.3683 34.9728L41.8285 35.0485L41.1955 36.6911C43.5552 38.2988 45.3003 40.1103 46.6706 42.3704C50.2839 43.5412 54.0753 43.4888 57.7499 42.2364H57.7438ZM34.8417 45.213L34.6143 39.3822L32.4943 38.59L27.1052 43.5762C25.4338 46.9022 25.9807 50.7117 27.0807 54.2707C30.9089 52.4067 34.1412 49.2554 34.8478 45.2188L34.8417 45.213ZM44.8518 54.3173C46.05 50.8049 46.1913 47.2284 45.073 43.9023L41.6994 41.0015L39.1616 38.6192L37.2751 39.3939L37.1952 45.6848C38.4242 49.4069 41.0542 52.4824 44.8456 54.3173H44.8518ZM25.188 55.1444C23.7317 51.4922 23.6887 48.1021 24.383 44.5664C20.5056 45.51 16.9415 45.3295 13.3529 44.2111C12.1239 48.1138 12.0256 52.0456 12.3513 56.0473L19.3872 56.2861C21.3659 56.356 23.2647 55.7444 25.1942 55.1444H25.188ZM54.6406 56.3735L59.4398 56.0415C59.8392 52.098 59.8331 48.1312 58.6409 44.1761C54.9048 45.2246 51.2117 45.4925 47.5432 44.7644C48.3851 48.4516 47.8505 51.7427 46.8058 55.2027C49.2884 56.0764 51.8508 56.3385 54.6468 56.3735H54.6406ZM41.0112 60.7829C42.4122 59.5015 43.1865 57.8064 44.0836 56.1871C40.5257 54.4513 37.8527 52.0223 36.0707 48.5506C34.4177 51.8883 31.5419 54.3988 28.0085 56.1754C29.8766 59.8626 32.6418 62.7343 36.0154 65.3671L41.0173 60.7829H41.0112Z" fill="#B77B52"/>
</svg>
