<svg width="25" height="25" viewBox="0 0 25 25" fill="none" xmlns="http://www.w3.org/2000/svg">
<g clip-path="url(#clip0_274_2630)">
<path d="M25 2.21256C24.8657 1.04553 23.9545 0.137486 22.7874 0H2.26372C1.0839 0.0959202 0.131091 1.03914 0 2.21256V22.7906C0.134288 23.9513 1.04553 24.8721 2.21256 25.0032H11.8781V16.9107H8.21397L8.14362 16.8404V12.5623H11.8781C11.9644 10.2123 11.4401 7.49776 13.0611 5.54419C14.954 3.26129 17.9531 3.68973 20.6005 3.86558L20.7188 3.93593V7.74076H18.1417C17.7964 7.74076 17.1953 7.91022 16.9139 8.11804C16.6262 8.33227 16.3224 8.92377 16.3224 9.27548V12.5591H20.5077L20.5685 12.6647L20.009 16.9075H16.3224V25H22.7619C23.4269 24.9329 24.0728 24.5843 24.4852 24.06C24.7506 23.7243 24.968 23.1903 25 22.7619V2.21256Z" fill="white"/>
</g>
<defs>
<clipPath id="clip0_274_2630">
<rect width="25" height="25" fill="white"/>
</clipPath>
</defs>
</svg>
