<svg width="22" height="22" viewBox="0 0 22 22" fill="none" xmlns="http://www.w3.org/2000/svg">
<g clip-path="url(#clip0_274_2686)">
<path d="M21.0728 1.86499C20.9596 0.88129 20.1915 0.115888 19.2078 0H1.90811C0.913631 0.0808523 0.110498 0.8759 0 1.86499V19.2105C0.113193 20.1888 0.88129 20.965 1.86499 21.0755H10.0122V14.2543H6.92365L6.86436 14.195V10.589H10.0122C10.085 8.60807 9.64298 6.31995 11.0094 4.67326C12.6049 2.74898 15.1329 3.11012 17.3644 3.25835L17.4641 3.31764V6.52478H15.2919C15.0008 6.52478 14.4941 6.66762 14.257 6.8428C14.0144 7.02337 13.7584 7.52196 13.7584 7.81841V10.5863H17.2862L17.3374 10.6752L16.8658 14.2516H13.7584V21.0728H19.1862C19.7468 21.0162 20.2912 20.7224 20.6389 20.2804C20.8626 19.9975 21.0458 19.5474 21.0728 19.1862V1.86499Z" fill="#B77B52"/>
</g>
<defs>
<clipPath id="clip0_274_2686">
<rect width="21.0728" height="21.0728" fill="white"/>
</clipPath>
</defs>
</svg>
