<svg width="25" height="25" viewBox="0 0 25 25" fill="none" xmlns="http://www.w3.org/2000/svg">
<g clip-path="url(#clip0_274_2624)">
<path d="M25 2.21256C24.8657 1.04553 23.9545 0.137486 22.7874 0H2.26372C1.0839 0.0959202 0.131091 1.03914 0 2.21256V22.7906C0.134288 23.9513 1.04553 24.8721 2.21256 25.0032H22.7619C23.4269 24.9361 24.0728 24.5875 24.4852 24.0632C24.7506 23.7275 24.968 23.1935 25 22.7651V2.21256ZM21.144 18.017C21.0225 19.6892 19.6892 21.0193 18.0202 21.1408H6.97979C5.31398 21.0097 3.9711 19.6924 3.85599 18.017L3.86239 6.89986C4.00627 5.32037 5.282 4.02865 6.86149 3.87198L18.0618 3.85919C19.7148 3.99667 21.0257 5.32997 21.144 6.97979V18.017Z" fill="white"/>
<path d="M18.0163 5.18933L6.90231 5.19892C5.98787 5.346 5.29405 6.0622 5.18534 6.98304C5.22691 10.7687 5.09901 14.5735 5.24929 18.3496C5.48589 19.1617 6.18291 19.7212 7.02061 19.814C10.7935 19.766 14.5887 19.9003 18.3488 19.7468C19.1609 19.5102 19.7268 18.8164 19.8132 17.9755V7.0246C19.7173 6.05581 18.9787 5.30124 18.0163 5.18933ZM16.4624 14.9316C14.7614 17.6909 10.7679 17.9243 8.80153 15.3313C6.59217 12.4153 8.45302 8.16605 12.0916 7.85911C15.8804 7.53938 18.4671 11.6799 16.4624 14.9316ZM17.3033 9.17002C15.5543 9.34907 15.2857 6.74644 16.9643 6.52902C18.7612 6.29241 19.0298 8.99417 17.3033 9.17002Z" fill="white"/>
<path d="M12.1362 9.18914C9.57193 9.45133 8.26422 12.5304 9.88527 14.5575C11.3784 16.4215 14.3008 16.1817 15.4327 14.0779C16.7052 11.715 14.7868 8.91417 12.1362 9.18595V9.18914Z" fill="white"/>
<path d="M18.0163 5.18933L6.90231 5.19892C5.98787 5.346 5.29405 6.0622 5.18534 6.98304C5.22691 10.7687 5.09901 14.5735 5.24929 18.3496C5.48589 19.1617 6.18291 19.7212 7.02061 19.814C10.7935 19.766 14.5887 19.9003 18.3488 19.7468C19.1609 19.5102 19.7268 18.8164 19.8132 17.9755V7.0246C19.7173 6.05581 18.9787 5.30124 18.0163 5.18933ZM16.4624 14.9316C14.7614 17.6909 10.7679 17.9243 8.80153 15.3313C6.59217 12.4153 8.45302 8.16605 12.0916 7.85911C15.8804 7.53938 18.4671 11.6799 16.4624 14.9316ZM17.3033 9.17002C15.5543 9.34907 15.2857 6.74644 16.9643 6.52902C18.7612 6.29241 19.0298 8.99417 17.3033 9.17002Z" fill="white"/>
</g>
<defs>
<clipPath id="clip0_274_2624">
<rect width="25" height="25" fill="white"/>
</clipPath>
</defs>
</svg>
