<svg width="22" height="22" viewBox="0 0 22 22" fill="none" xmlns="http://www.w3.org/2000/svg">
<g clip-path="url(#clip0_274_2680)">
<path d="M21.0728 1.86499C20.9596 0.88129 20.1915 0.115888 19.2078 0H1.90811C0.913631 0.0808523 0.110498 0.8759 0 1.86499V19.2105C0.113193 20.1888 0.88129 20.965 1.86499 21.0755H19.1862C19.7468 21.0189 20.2912 20.7251 20.6389 20.2831C20.8626 20.0002 21.0458 19.5501 21.0728 19.1889V1.86499ZM17.8225 15.1868C17.7201 16.5963 16.5963 17.7174 15.1894 17.8198H5.88335C4.47922 17.7093 3.34728 16.599 3.25026 15.1868L3.25565 5.81597C3.37693 4.48461 4.45227 3.3958 5.78363 3.26374L15.2245 3.25296C16.6178 3.36884 17.7228 4.49269 17.8225 5.88335V15.1868Z" fill="#B77B52"/>
<path d="M15.1864 4.37408L5.81829 4.38217C5.0475 4.50614 4.46267 5.10984 4.37103 5.88602C4.40607 9.07699 4.29827 12.2841 4.42493 15.467C4.62437 16.1516 5.2119 16.6232 5.91801 16.7014C9.0982 16.6609 12.2973 16.7741 15.4667 16.6448C16.1512 16.4453 16.6282 15.8605 16.701 15.1517V5.92106C16.6202 5.10445 15.9976 4.46841 15.1864 4.37408ZM13.8766 12.586C12.4428 14.9118 9.07664 15.1086 7.41916 12.9229C5.55687 10.465 7.1254 6.8832 10.1924 6.62447C13.3861 6.35497 15.5664 9.84509 13.8766 12.586ZM14.5854 7.72945C13.1112 7.88038 12.8848 5.68659 14.2997 5.50332C15.8143 5.30389 16.0407 7.58122 14.5854 7.72945Z" fill="#B77B52"/>
<path d="M10.2311 7.74564C8.06963 7.96663 6.96735 10.562 8.33375 12.2707C9.59235 13.8419 12.0556 13.6398 13.0097 11.8664C14.0823 9.87475 12.4653 7.51386 10.2311 7.74294V7.74564Z" fill="#B77B52"/>
<path d="M15.1864 4.37408L5.81829 4.38217C5.0475 4.50614 4.46267 5.10984 4.37103 5.88602C4.40607 9.07699 4.29827 12.2841 4.42493 15.467C4.62437 16.1516 5.2119 16.6232 5.91801 16.7014C9.0982 16.6609 12.2973 16.7741 15.4667 16.6448C16.1512 16.4453 16.6282 15.8605 16.701 15.1517V5.92106C16.6202 5.10445 15.9976 4.46841 15.1864 4.37408ZM13.8766 12.586C12.4428 14.9118 9.07664 15.1086 7.41916 12.9229C5.55687 10.465 7.1254 6.8832 10.1924 6.62447C13.3861 6.35497 15.5664 9.84509 13.8766 12.586ZM14.5854 7.72945C13.1112 7.88038 12.8848 5.68659 14.2997 5.50332C15.8143 5.30389 16.0407 7.58122 14.5854 7.72945Z" fill="#B77B52"/>
</g>
<defs>
<clipPath id="clip0_274_2680">
<rect width="21.0728" height="21.0728" fill="white"/>
</clipPath>
</defs>
</svg>
