<svg width="20" height="16" viewBox="0 0 20 16" fill="none" xmlns="http://www.w3.org/2000/svg">
<path d="M1.48002 0.01457L18.39 0C19.2682 0.084507 19.9191 0.797475 20 1.67266V14.3273C19.9182 15.2025 19.2672 15.9145 18.39 16H1.61001C0.738565 15.9077 0.0751083 15.2074 0 14.3273L0.00192585 1.627C0.0972557 0.826615 0.682715 0.154444 1.48002 0.0155415V0.01457ZM18.2687 1.55318H1.73231L9.97689 8.87712C10.0857 8.88198 10.1858 8.84993 10.2658 8.77611L18.2696 1.55415L18.2687 1.55318ZM18.4612 3.58912L10.9292 10.2691C10.2667 10.6625 9.40684 10.5983 8.82427 10.0826L1.53972 3.54055V14.2768C1.53972 14.2963 1.59557 14.3856 1.62061 14.4012L18.3534 14.4138C18.3958 14.4012 18.4603 14.305 18.4603 14.2759V3.58815L18.4612 3.58912Z" fill="white"/>
</svg>
