<svg width="20" height="20" viewBox="0 0 20 20" fill="none" xmlns="http://www.w3.org/2000/svg">
<path d="M3.78006 0.0269902C4.58801 -0.0726754 5.41791 0.100013 6.05729 0.606235C6.67672 1.09766 8.01533 3.19359 8.24973 3.95342C8.52105 4.83364 8.48813 5.75727 8.14899 6.61183C7.86072 7.33613 7.26922 7.68052 7.58442 8.50153C8.13802 9.94322 9.72899 11.5014 11.0796 12.2345C11.3728 12.3944 12.0501 12.7516 12.3593 12.6974C12.8361 12.6135 13.3937 12.2454 13.9413 12.1418C15.639 11.8221 17.4135 12.6293 18.7781 13.5835C20.5097 14.7933 20.3481 17.2484 18.6275 18.402C16.3183 19.9493 14.465 20.6242 11.8257 19.2763C6.961 16.7915 3.23444 13.1029 0.728784 8.28739C-0.241758 6.42138 -0.249739 4.94416 0.745739 3.08307C1.40407 1.85255 2.22499 0.219414 3.78006 0.0260034V0.0269902ZM18.016 16.8863C18.4429 16.4649 18.5287 15.7426 18.1955 15.2423C17.9222 14.8318 16.4619 14.0601 15.9602 13.8578C14.0909 13.1059 13.2521 14.5703 11.708 14.2219C9.53249 13.7305 6.69567 10.9103 5.99445 8.84197C5.33911 6.91083 7.40787 6.2408 6.68968 4.3136C6.54206 3.9179 5.3411 2.03017 5.03388 1.81505C4.52417 1.45882 3.75412 1.51507 3.31224 1.95221C3.02597 2.23542 2.03148 3.96822 1.86191 4.38366C1.07291 6.3227 2.37262 8.09596 3.39304 9.6916C5.48075 12.9549 8.24375 15.4475 11.6272 17.356C12.9199 18.0852 13.8595 18.7197 15.4335 18.2964C15.9083 18.1681 17.6828 17.2178 18.017 16.8873L18.016 16.8863Z" fill="white"/>
</svg>
