<svg width="25" height="25" viewBox="0 0 25 25" fill="none" xmlns="http://www.w3.org/2000/svg">
<g clip-path="url(#clip0_274_2622)">
<path d="M24.4852 24.06C24.0728 24.5843 23.4269 24.9329 22.7619 25H2.21256C1.04873 24.8721 0.134288 23.9481 0 22.7874V2.21256C0.131091 1.03914 1.0839 0.0959202 2.26372 0H22.7874C23.9513 0.137486 24.8657 1.04553 25 2.21256V22.7619C24.968 23.1903 24.7506 23.7243 24.4852 24.06ZM15.3472 5.26922H13.1762L13.1379 5.30758V15.4495C13.1379 16.2297 12.265 17.1281 11.5552 17.3616C9.1316 18.1609 7.35708 15.1138 9.19235 13.4096C9.77107 12.8725 10.596 12.687 11.3633 12.8405L11.3857 10.6344C11.3697 10.5864 11.2674 10.5704 11.2163 10.564C7.59368 10.1931 5.00384 14.145 6.76557 17.3424C8.42819 20.3575 12.7094 20.5493 14.6118 17.6685C15.3856 16.4983 15.3376 15.5806 15.36 14.2314C15.3824 12.7862 15.2705 11.2323 15.3856 9.80944C15.3856 9.79345 15.3344 9.60481 15.4272 9.69114C15.5359 9.79025 15.6542 9.98849 15.7661 10.1068C16.0506 10.3977 16.4407 10.6759 16.8052 10.855C17.4191 11.1523 18.0618 11.2546 18.7332 11.3378C18.7556 11.3378 18.8004 11.309 18.8004 11.2962V8.85983C18.5638 8.75432 18.292 8.72234 18.0458 8.63601C16.7253 8.18199 15.9579 7.19721 15.5359 5.90229C15.5039 5.80317 15.392 5.2852 15.344 5.27241L15.3472 5.26922Z" fill="white"/>
</g>
<defs>
<clipPath id="clip0_274_2622">
<rect width="25" height="25" fill="white"/>
</clipPath>
</defs>
</svg>
