<svg width="22" height="22" viewBox="0 0 22 22" fill="none" xmlns="http://www.w3.org/2000/svg">
<g clip-path="url(#clip0_274_2678)">
<path d="M20.6389 20.2804C20.2912 20.7224 19.7468 21.0162 19.1862 21.0728H1.86499C0.883985 20.965 0.113193 20.1861 0 19.2078V1.86499C0.110498 0.8759 0.913631 0.0808523 1.90811 0H19.2078C20.1888 0.115888 20.9596 0.88129 21.0728 1.86499V19.1862C21.0458 19.5474 20.8626 19.9975 20.6389 20.2804ZM12.9364 4.44148H11.1064L11.0741 4.47383V13.0226C11.0741 13.6802 10.3383 14.4375 9.74 14.6343C7.69714 15.308 6.20137 12.7396 7.74834 11.3031C8.23615 10.8504 8.93148 10.6941 9.5783 10.8234L9.59717 8.96382C9.58369 8.9234 9.49745 8.90992 9.45433 8.90453C6.40081 8.5919 4.21779 11.923 5.70278 14.6181C7.10422 17.1595 10.7129 17.3213 12.3165 14.893C12.9687 13.9066 12.9283 13.1331 12.9471 11.9958C12.966 10.7776 12.8717 9.4678 12.9687 8.26849C12.9687 8.25502 12.9256 8.09601 13.0037 8.16877C13.0954 8.25232 13.1951 8.41942 13.2894 8.51913C13.5293 8.76439 13.8581 8.99886 14.1653 9.14978C14.6828 9.40042 15.2245 9.48667 15.7904 9.55674C15.8093 9.55674 15.847 9.53248 15.847 9.5217V7.46805C15.6476 7.37912 15.4185 7.35217 15.211 7.2794C14.0979 6.8967 13.4511 6.06662 13.0954 4.97511C13.0684 4.89156 12.9741 4.45496 12.9337 4.44418L12.9364 4.44148Z" fill="#B77B52"/>
</g>
<defs>
<clipPath id="clip0_274_2678">
<rect width="21.0728" height="21.0728" fill="white"/>
</clipPath>
</defs>
</svg>
