<svg width="31" height="22" viewBox="0 0 31 22" fill="none" xmlns="http://www.w3.org/2000/svg">
<g clip-path="url(#clip0_274_2688)">
<path d="M13.9818 -0.000193792C14.8611 -0.00774442 15.7404 0.0375594 16.6087 0.0488853C19.6224 0.0790878 22.8258 0.033784 25.8067 0.445293C29.3603 0.93986 29.8273 2.94455 30.1338 6.27438C30.4366 9.55136 30.4293 13.5645 29.9988 16.8302C29.3056 22.1269 26.1058 21.5569 21.8407 21.7607C17.4479 21.9684 13.0623 21.9721 8.6695 21.7607C5.33475 21.6022 1.35055 22.1005 0.522335 17.8646C-0.174534 14.2969 -0.127103 8.52447 0.387339 4.91527C0.901782 1.29474 2.31376 0.618958 5.64487 0.309382C8.34478 0.0564359 11.2673 0.0186828 13.9818 -0.000193792ZM12.1684 15.6334L19.9836 10.9709L12.1684 6.30836V15.6334Z" fill="#B77B52"/>
</g>
<defs>
<clipPath id="clip0_274_2688">
<rect width="30.3448" height="21.9157" fill="white"/>
</clipPath>
</defs>
</svg>
