<svg width="36" height="26" viewBox="0 0 36 26" fill="none" xmlns="http://www.w3.org/2000/svg">
<g clip-path="url(#clip0_274_2632)">
<path d="M16.5875 -9.75727e-05C17.6306 -0.00905537 18.6738 0.0446914 19.704 0.0581281C23.2793 0.0939593 27.0797 0.0402125 30.6161 0.528412C34.832 1.11515 35.3861 3.49344 35.7497 7.44383C36.1089 11.3315 36.1003 16.0926 35.5895 19.9668C34.7671 26.2507 30.971 25.5744 25.911 25.8163C20.6995 26.0626 15.4967 26.0671 10.2852 25.8163C6.32895 25.6282 1.60224 26.2194 0.619679 21.194C-0.207061 16.9615 -0.150791 10.1133 0.459525 5.83143C1.06984 1.53616 2.74496 0.734442 6.69687 0.367172C9.89995 0.0670859 13.3671 0.0222969 16.5875 -9.75727e-05ZM14.4362 18.547L23.7078 13.0156L14.4362 7.48414V18.547Z" fill="white"/>
</g>
<defs>
<clipPath id="clip0_274_2632">
<rect width="36" height="26" fill="white"/>
</clipPath>
</defs>
</svg>
